<?xml version="1.0" encoding="UTF-8"?>
<svg version="1.1" xmlns="http://www.w3.org/2000/svg" width="48" height="46">
<path d="M0 0 C15.84 0 31.68 0 48 0 C48 15.18 48 30.36 48 46 C32.16 46 16.32 46 0 46 C0 30.82 0 15.64 0 0 Z " fill="#FAFBFA" transform="translate(0,0)"/>
<path d="M0 0 C0.33 0.66 0.66 1.32 1 2 C0.01 2.495 0.01 2.495 -1 3 C-0.01 3.33 0.98 3.66 2 4 C1.91621094 4.80824219 1.83242188 5.61648437 1.74609375 6.44921875 C1.64425781 7.51785156 1.54242188 8.58648437 1.4375 9.6875 C1.33308594 10.74324219 1.22867188 11.79898437 1.12109375 12.88671875 C1.00722448 15.81426086 1.29151585 18.17131144 2 21 C1.34 21.33 0.68 21.66 0 22 C1.7015625 22.2165625 1.7015625 22.2165625 3.4375 22.4375 C7 23 7 23 8 24 C8.04080783 25.99958364 8.04254356 28.00045254 8 30 C4.25173643 30.88194437 0.83858177 31 -3 31 C-3.680625 31.185625 -4.36125 31.37125 -5.0625 31.5625 C-7 32 -7 32 -9.26171875 31.52734375 C-12.17319464 30.96664582 -14.78979525 30.93599557 -17.75 31 C-19.49959978 31.03742459 -21.25063026 31.04696295 -23 31 C-24 30 -24 30 -24.0625 26.9375 C-24.041875 25.968125 -24.02125 24.99875 -24 24 C-20.67465243 22.89155081 -18.37817425 23.15545644 -15 24 C-15.495 23.5875 -15.99 23.175 -16.5 22.75 C-18 21 -18 21 -18 17 C-14.5029592 16.93005918 -11.2634108 16.95351574 -7.8125 17.5625 C-5.09911398 17.98458227 -3.5599376 17.88613224 -1 17 C-1.33 16.01 -1.66 15.02 -2 14 C-2 13.34 -2 12.68 -2 12 C-2.9590625 11.8453125 -2.9590625 11.8453125 -3.9375 11.6875 C-4.618125 11.460625 -5.29875 11.23375 -6 11 C-6.33 10.01 -6.66 9.02 -7 8 C-7.99 8 -8.98 8 -10 8 C-9.67 9.32 -9.34 10.64 -9 12 C-10.98 12 -12.96 12 -15 12 C-14.67 12.99 -14.34 13.98 -14 15 C-14.99 14.67 -15.98 14.34 -17 14 C-17.33 10.7 -17.66 7.4 -18 4 C-17.01 3.67 -16.02 3.34 -15 3 C-15.66 2.34 -16.32 1.68 -17 1 C-11.02364215 -2.37794139 -6.49039651 -2.34997115 0 0 Z " fill="#807263" transform="translate(32,7)"/>
<path d="M0 0 C3.51790906 -0.07035818 6.77666722 -0.03865375 10.25 0.5625 C13.08021919 1.22956735 13.08021919 1.22956735 16 0 C16 1.98 16 3.96 16 6 C15.01 6.495 15.01 6.495 14 7 C14.33 9.31 14.66 11.62 15 14 C12.62747881 14.7908404 11.19066331 15.03943634 8.71484375 14.52734375 C5.81196901 13.96347599 3.20243932 13.93616347 0.25 14 C-1.49959978 14.03742459 -3.25063026 14.04696295 -5 14 C-6 13 -6 13 -6.0625 9.9375 C-6.041875 8.968125 -6.02125 7.99875 -6 7 C-2.67465243 5.89155081 -0.37817425 6.15545644 3 7 C2.505 6.5875 2.01 6.175 1.5 5.75 C0 4 0 4 0 0 Z " fill="#386982" transform="translate(14,24)"/>
<path d="M0 0 C1.98 0 3.96 0 6 0 C6 1.32 6 2.64 6 4 C6.66 4.33 7.32 4.66 8 5 C8.33 4.01 8.66 3.02 9 2 C9.66 2 10.32 2 11 2 C10.51461245 9.52350699 10.51461245 9.52350699 8.3125 11.5625 C5.27820834 12.13655518 3.01076962 11.66236932 0 11 C-2 10.66666667 -4 10.33333333 -6 10 C-6 9.34 -6 8.68 -6 8 C-5.34 7.67 -4.68 7.34 -4 7 C-4 6.01 -4 5.02 -4 4 C-3.34 3.34 -2.68 2.68 -2 2 C-2 2.99 -2 3.98 -2 5 C-0.68 5 0.64 5 2 5 C1.34 3.35 0.68 1.7 0 0 Z " fill="#E1D2C0" transform="translate(21,14)"/>
<path d="M0 0 C0.33 0.66 0.66 1.32 1 2 C0.01 2.495 0.01 2.495 -1 3 C-0.01 3.33 0.98 3.66 2 4 C1.34 5.32 0.68 6.64 0 8 C-0.66 7.67 -1.32 7.34 -2 7 C-4.30120301 6.80680199 -6.59955632 6.6828131 -8.90625 6.57421875 C-11 6 -11 6 -12.1484375 4.00390625 C-12.42945313 3.34261719 -12.71046875 2.68132813 -13 2 C-15.05000871 1.19471111 -15.05000871 1.19471111 -17 1 C-11.02364215 -2.37794139 -6.49039651 -2.34997115 0 0 Z " fill="#3C434E" transform="translate(32,7)"/>
<path d="M0 0 C0.79664063 0.09023438 1.59328125 0.18046875 2.4140625 0.2734375 C4.375 0.625 4.375 0.625 5.375 1.625 C5.41580783 3.62458364 5.41754356 5.62545254 5.375 7.625 C1.96937148 8.40342938 -1.13265756 8.72478121 -4.625 8.625 C-5.615 5.985 -6.605 3.345 -7.625 0.625 C-4.56689824 -0.39436725 -3.12698793 -0.37686825 0 0 Z " fill="#8A7236" transform="translate(34.625,29.375)"/>
<path d="M0 0 C0.61488281 0.08378906 1.22976562 0.16757812 1.86328125 0.25390625 C3.07564453 0.40666016 3.07564453 0.40666016 4.3125 0.5625 C5.11300781 0.66691406 5.91351563 0.77132813 6.73828125 0.87890625 C9.16817116 1.14755178 9.16817116 1.14755178 12 0 C12 1.98 12 3.96 12 6 C11.01 6.495 11.01 6.495 10 7 C10 7.66 10 8.32 10 9 C9.34 9 8.68 9 8 9 C8 8.34 8 7.68 8 7 C6.35 7 4.7 7 3 7 C3 6.34 3 5.68 3 5 C2.01 5 1.02 5 0 5 C0 3.35 0 1.7 0 0 Z " fill="#13356E" transform="translate(18,24)"/>
<path d="M0 0 C0.99 0 1.98 0 3 0 C3 0.66 3 1.32 3 2 C3.99 2 4.98 2 6 2 C6 3.65 6 5.3 6 7 C5.01 6.67 4.02 6.34 3 6 C1.50434343 5.78052866 0.00340851 5.59535789 -1.5 5.4375 C-2.2734375 5.35371094 -3.046875 5.26992188 -3.84375 5.18359375 C-6.13752206 4.95758102 -6.13752206 4.95758102 -9 5 C-9.33 4.01 -9.66 3.02 -10 2 C-6.7169902 0.3584951 -3.57454967 1.48111376 0 2 C0 1.34 0 0.68 0 0 Z " fill="#5896B1" transform="translate(23,31)"/>
<path d="M0 0 C1.32 0 2.64 0 4 0 C4 1.65 4 3.3 4 5 C4.99 5 5.98 5 7 5 C7 5.66 7 6.32 7 7 C7.66 7 8.32 7 9 7 C9 7.66 9 8.32 9 9 C7.68 9 6.36 9 5 9 C4.67 9.66 4.34 10.32 4 11 C4 10.34 4 9.68 4 9 C2.02 9.33 0.04 9.66 -2 10 C-2 9.01 -2 8.02 -2 7 C-0.35 7 1.3 7 3 7 C2.505 6.5875 2.01 6.175 1.5 5.75 C0 4 0 4 0 0 Z " fill="#53494F" transform="translate(14,24)"/>
<path d="M0 0 C3.32722855 0.45892808 5.43095544 0.37110306 8.625 -0.5 C8.955 0.49 9.285 1.48 9.625 2.5 C7.05673329 4.17925131 5.85182318 4.52465469 2.75 4.1875 C1.71875 3.960625 0.6875 3.73375 -0.375 3.5 C-2.375 3.16666667 -4.375 2.83333333 -6.375 2.5 C-6.375 1.84 -6.375 1.18 -6.375 0.5 C-3.375 -0.5 -3.375 -0.5 0 0 Z " fill="#969FA6" transform="translate(21.375,21.5)"/>
<path d="M0 0 C1.98 0.495 1.98 0.495 4 1 C4 2.98 4 4.96 4 7 C2.35 7.33 0.7 7.66 -1 8 C-1.125 2.25 -1.125 2.25 0 0 Z " fill="#9D7943" transform="translate(36,30)"/>
<path d="M0 0 C0.33 0 0.66 0 1 0 C1.19491452 1.45736087 1.38069358 2.91594593 1.5625 4.375 C1.66691406 5.18710937 1.77132813 5.99921875 1.87890625 6.8359375 C2 9 2 9 1 11 C-0.32 11 -1.64 11 -3 11 C-3 9.02 -3 7.04 -3 5 C-2.34 4.67 -1.68 4.34 -1 4 C-1 3.01 -1 2.02 -1 1 C-0.67 0.67 -0.34 0.34 0 0 Z " fill="#F4F1F0" transform="translate(14,13)"/>
<path d="M0 0 C0.99 0 1.98 0 3 0 C4.125 5.75 4.125 5.75 3 8 C1.68 7.67 0.36 7.34 -1 7 C-1.04254356 5.00045254 -1.04080783 2.99958364 -1 1 C-0.67 0.67 -0.34 0.34 0 0 Z " fill="#5A8CA3" transform="translate(9,30)"/>
<path d="M0 0 C1.98 0 3.96 0 6 0 C6.33 1.98 6.66 3.96 7 6 C4.08517222 6.80967438 2.53886783 7.21845993 -0.3125 6.0625 C-0.869375 5.711875 -1.42625 5.36125 -2 5 C-0.68 5 0.64 5 2 5 C1.34 3.35 0.68 1.7 0 0 Z " fill="#B8A889" transform="translate(21,14)"/>
<path d="M0 0 C0.66 1.32 1.32 2.64 2 4 C0.02 4.99 0.02 4.99 -2 6 C-2.15149298 9.62885324 -2.15149298 9.62885324 -1 13 C-1.99 12.67 -2.98 12.34 -4 12 C-4.33 8.7 -4.66 5.4 -5 2 C-2 0 -2 0 0 0 Z " fill="#795A46" transform="translate(19,9)"/>
<path d="M0 0 C0.33 0 0.66 0 1 0 C0.979375 1.051875 0.95875 2.10375 0.9375 3.1875 C0.98896802 6.32704904 1.26517187 8.96883396 2 12 C0.68 12.33 -0.64 12.66 -2 13 C-2.16682272 8.07872966 -2.24828052 4.49656104 0 0 Z " fill="#534A4A" transform="translate(32,16)"/>
<path d="M0 0 C2.97851562 0.43945312 2.97851562 0.43945312 5.95703125 0.87890625 C8.2025342 1.13904799 8.2025342 1.13904799 11 0 C10 3 10 3 8.1875 4.25 C5.58019256 5.14393398 4.49382541 5.16378519 2 4 C0.75 1.9375 0.75 1.9375 0 0 Z " fill="#2062A3" transform="translate(19,24)"/>
<path d="M0 0 C0.33 0.66 0.66 1.32 1 2 C1.66 2 2.32 2 3 2 C3 2.66 3 3.32 3 4 C3.99 4 4.98 4 6 4 C5.34 5.32 4.68 6.64 4 8 C2.68 8 1.36 8 0 8 C-0.98120464 4.94736336 -0.98120464 3.05263664 0 0 Z " fill="#F0EDDF" transform="translate(33,17)"/>
<path d="M0 0 C0.33 0.99 0.66 1.98 1 3 C0.34 3 -0.32 3 -1 3 C-1 3.66 -1 4.32 -1 5 C-3.66666667 5 -6.33333333 5 -9 5 C-9.33 4.01 -9.66 3.02 -10 2 C-6.7169902 0.3584951 -3.57454967 1.48111376 0 2 C0 1.34 0 0.68 0 0 Z " fill="#7AC0D9" transform="translate(23,31)"/>
<path d="M0 0 C0.9075 0.185625 1.815 0.37125 2.75 0.5625 C5.68314324 0.95734621 7.2644657 0.94691572 10 0 C10 0.99 10 1.98 10 3 C7.29120665 4.35439668 4.99066732 4.06501451 2 4 C1.34 2.68 0.68 1.36 0 0 Z " fill="#2E1B0C" transform="translate(19,9)"/>
<path d="M0 0 C3.63 0 7.26 0 11 0 C11 0.66 11 1.32 11 2 C9.68 2 8.36 2 7 2 C6.67 2.66 6.34 3.32 6 4 C6 3.34 6 2.68 6 2 C4.02 2.33 2.04 2.66 0 3 C0 2.01 0 1.02 0 0 Z " fill="#395E62" transform="translate(12,31)"/>
<path d="M0 0 C0 0.66 0 1.32 0 2 C0.66 2 1.32 2 2 2 C2.33 2.99 2.66 3.98 3 5 C-0.3 4.34 -3.6 3.68 -7 3 C-3 0 -3 0 0 0 Z " fill="#373D3C" transform="translate(22,6)"/>
<path d="M0 0 C1.69141656 0.08963062 3.37959602 0.24577676 5.0625 0.4375 C6.44115234 0.59025391 6.44115234 0.59025391 7.84765625 0.74609375 C8.55792969 0.82988281 9.26820312 0.91367187 10 1 C9.67 1.66 9.34 2.32 9 3 C7.8553125 2.9690625 7.8553125 2.9690625 6.6875 2.9375 C3.89814214 2.87057159 3.89814214 2.87057159 1 4 C1 3.34 1 2.68 1 2 C0.34 1.67 -0.32 1.34 -1 1 C-0.67 0.67 -0.34 0.34 0 0 Z " fill="#F6F1E7" transform="translate(29,37)"/>
<path d="M0 0 C0.33 0.99 0.66 1.98 1 3 C-1.64 2.67 -4.28 2.34 -7 2 C-7 1.34 -7 0.68 -7 0 C-3.89953913 -1.03348696 -2.94389782 -1.17755913 0 0 Z " fill="#A6AAB2" transform="translate(22,22)"/>
<path d="M0 0 C0.33 0.66 0.66 1.32 1 2 C1.66 2.165 2.32 2.33 3 2.5 C3.66 2.665 4.32 2.83 5 3 C5.33 3.66 5.66 4.32 6 5 C3.6568787 4.74438677 1.32156597 4.40729228 -1 4 C-1.33 3.34 -1.66 2.68 -2 2 C-1.34 2 -0.68 2 0 2 C0 1.34 0 0.68 0 0 Z " fill="#2F6182" transform="translate(22,34)"/>
<path d="M0 0 C1.65 0.33 3.3 0.66 5 1 C4.34 2.32 3.68 3.64 3 5 C0.525 4.01 0.525 4.01 -2 3 C-1.34 2.67 -0.68 2.34 0 2 C0 1.34 0 0.68 0 0 Z " fill="#705240" transform="translate(29,10)"/>
</svg>
